# xmcd
# 
# Track frame offsets:
#     150
#     47758
#     88987
#     148154
#     183415
#     226315
#     275105
# 
# Disc length: 4345
# 
# Revision: 0
# Processed by: cddbd v1.5.2PL0 Copyright (c) Steve Scherf et al.
# Submitted via: BonkEnc v1.0.8
# 
DISCID=6810f707
DTITLE=T.H. White - Der König auf Camelot - IV  CD2
DYEAR=0
DGENRE=
TTITLE0=07 - Kapitel 4 (Forts.).3
TTITLE1=08 - Kapitel 5
TTITLE2=09 - Kapitel 5 (Forts.)
TTITLE3=10 - Kapitel 6
TTITLE4=11 - Kapitel 7
TTITLE5=12 - Kapitel 7 (Forts.)
TTITLE6=13 - Kapitel 8
EXTD=Hörbuch, gelesen von Jochen Malmsheimer,.
EXTT0=
EXTT1=
EXTT2=
EXTT3=
EXTT4=
EXTT5=
EXTT6=
PLAYORDER=
